<svg width="24" height="24" viewBox="0 0 24 24" fill="none" xmlns="http://www.w3.org/2000/svg">
<path d="M20.76 4.04475C19.6542 2.94255 18.1565 2.32364 16.5952 2.32364C15.0339 2.32364 13.5363 2.94255 12.4305 4.04475L2.73825 13.7363C2.34525 14.1229 2.0327 14.5836 1.81861 15.0916C1.60452 15.5997 1.49313 16.1451 1.49088 16.6965C1.48862 17.2478 1.59554 17.7941 1.80547 18.3039C2.0154 18.8137 2.32418 19.2769 2.714 19.6668C3.10382 20.0566 3.56697 20.3655 4.07675 20.5755C4.58652 20.7854 5.13282 20.8924 5.68414 20.8903C6.23547 20.8881 6.7809 20.7768 7.28899 20.5627C7.79709 20.3487 8.25778 20.0362 8.6445 19.6433L17.7315 10.557C18.1872 10.0917 18.4425 9.4664 18.4425 8.81512C18.4425 8.16385 18.1872 7.53851 17.7315 7.07325C17.2621 6.62553 16.6383 6.37575 15.9896 6.37575C15.3409 6.37575 14.7172 6.62553 14.2477 7.07325L5.76675 15.5543C5.63733 15.6968 5.56767 15.8836 5.5722 16.0761C5.57674 16.2686 5.65511 16.4519 5.7911 16.5882C5.92709 16.7245 6.11028 16.8033 6.30274 16.8082C6.4952 16.8131 6.68219 16.7439 6.825 16.6148L15.309 8.1345C15.4922 7.95885 15.7362 7.86078 15.99 7.86078C16.2438 7.86078 16.4878 7.95885 16.671 8.1345C16.8487 8.31662 16.9482 8.56102 16.9482 8.8155C16.9482 9.06998 16.8487 9.31438 16.671 9.4965L7.584 18.5828C7.08194 19.0847 6.40105 19.3667 5.69111 19.3666C4.98117 19.3665 4.30033 19.0844 3.79838 18.5824C3.29642 18.0803 3.01446 17.3994 3.01454 16.6895C3.01461 15.9795 3.2967 15.2987 3.79875 14.7968L13.491 5.10525C14.3182 4.30084 15.4288 3.85438 16.5826 3.86243C17.7363 3.87048 18.8406 4.3324 19.6565 5.14827C20.4723 5.96415 20.9343 7.0684 20.9423 8.22219C20.9504 9.37598 20.5039 10.4866 19.6995 11.3138L10.6132 20.4C10.4766 20.5415 10.401 20.7309 10.4027 20.9276C10.4045 21.1242 10.4833 21.3123 10.6224 21.4514C10.7614 21.5904 10.9495 21.6693 11.1462 21.671C11.3428 21.6727 11.5323 21.5971 11.6737 21.4605L20.76 12.375C21.863 11.2695 22.4824 9.77154 22.4824 8.20987C22.4824 6.64821 21.863 5.1503 20.76 4.04475Z" fill="#59647A"/>
</svg>
