<svg width="20" height="14" viewBox="0 0 20 14" fill="none" xmlns="http://www.w3.org/2000/svg">
<path d="M18.3333 6.16681H3.67832L8.08915 1.75598C8.16874 1.67911 8.23223 1.58715 8.2759 1.48548C8.31957 1.38381 8.34256 1.27447 8.34352 1.16382C8.34449 1.05317 8.3234 0.943434 8.2815 0.84102C8.2396 0.738607 8.17772 0.645563 8.09948 0.567319C8.02123 0.489076 7.92819 0.427198 7.82578 0.385297C7.72336 0.343397 7.61363 0.322312 7.50298 0.323274C7.39233 0.324235 7.28298 0.347224 7.18131 0.390898C7.07964 0.434572 6.98769 0.498057 6.91082 0.577649L1.07748 6.41098C0.921259 6.56725 0.833496 6.77917 0.833496 7.00014C0.833496 7.22111 0.921259 7.43304 1.07748 7.58931L6.91082 13.4226C7.06798 13.5744 7.27849 13.6584 7.49698 13.6565C7.71548 13.6546 7.92449 13.567 8.079 13.4125C8.2335 13.258 8.32114 13.049 8.32304 12.8305C8.32494 12.612 8.24095 12.4015 8.08915 12.2443L3.67832 7.83348H18.3333C18.5543 7.83348 18.7663 7.74568 18.9226 7.5894C19.0788 7.43312 19.1666 7.22116 19.1666 7.00014C19.1666 6.77913 19.0788 6.56717 18.9226 6.41089C18.7663 6.25461 18.5543 6.16681 18.3333 6.16681Z" fill="#9AA1B0"/>
</svg>
