<svg width="24" height="24" viewBox="0 0 24 24" fill="none" xmlns="http://www.w3.org/2000/svg">
<path d="M20.7599 4.04472C19.6541 2.94252 18.1564 2.32361 16.5951 2.32361C15.0338 2.32361 13.5362 2.94252 12.4304 4.04472L2.73813 13.7362C2.34513 14.1229 2.03257 14.5835 1.81848 15.0916C1.6044 15.5997 1.49301 16.1451 1.49076 16.6964C1.4885 17.2477 1.59542 17.7941 1.80535 18.3039C2.01527 18.8137 2.32405 19.2769 2.71388 19.6667C3.1037 20.0566 3.56685 20.3654 4.07662 20.5754C4.5864 20.7854 5.1327 20.8924 5.68402 20.8902C6.23534 20.888 6.78078 20.7767 7.28887 20.5627C7.79696 20.3487 8.25765 20.0362 8.64438 19.6432L17.7314 10.557C18.1871 10.0917 18.4424 9.46637 18.4424 8.81509C18.4424 8.16382 18.1871 7.53848 17.7314 7.07322C17.262 6.6255 16.6382 6.37572 15.9895 6.37572C15.3408 6.37572 14.717 6.6255 14.2476 7.07322L5.76663 15.5542C5.6372 15.6968 5.56755 15.8836 5.57208 16.0761C5.57661 16.2685 5.65499 16.4519 5.79098 16.5882C5.92697 16.7245 6.11016 16.8032 6.30262 16.8082C6.49508 16.8131 6.68207 16.7438 6.82488 16.6147L15.3089 8.13447C15.4921 7.95882 15.7361 7.86075 15.9899 7.86075C16.2437 7.86075 16.4877 7.95882 16.6709 8.13447C16.8486 8.31659 16.9481 8.56099 16.9481 8.81547C16.9481 9.06995 16.8486 9.31435 16.6709 9.49647L7.58388 18.5827C7.08182 19.0847 6.40093 19.3666 5.69099 19.3666C4.98105 19.3665 4.30021 19.0844 3.79825 18.5823C3.2963 18.0803 3.01434 17.3994 3.01441 16.6895C3.01448 15.9795 3.29657 15.2987 3.79863 14.7967L13.4909 5.10522C14.3181 4.30081 15.4286 3.85435 16.5824 3.8624C17.7362 3.87045 18.8405 4.33237 19.6563 5.14824C20.4722 5.96412 20.9341 7.06837 20.9422 8.22216C20.9502 9.37595 20.5038 10.4865 19.6994 11.3137L10.6131 20.4C10.4765 20.5414 10.4009 20.7309 10.4026 20.9275C10.4043 21.1242 10.4832 21.3123 10.6223 21.4513C10.7613 21.5904 10.9494 21.6693 11.1461 21.671C11.3427 21.6727 11.5322 21.5971 11.6736 21.4605L20.7599 12.375C21.8628 11.2694 22.4823 9.77151 22.4823 8.20984C22.4823 6.64818 21.8628 5.15027 20.7599 4.04472Z" fill="#59647A"/>
</svg>
