<svg width="20" height="20" viewBox="0 0 20 20" fill="none" xmlns="http://www.w3.org/2000/svg">
<path d="M10.0318 13.9994C10.15 13.9956 10.266 13.9696 10.3726 13.923C10.4792 13.8765 10.574 13.8105 10.651 13.7291L15.7941 8.28388C15.8673 8.20621 15.923 8.11625 15.9579 8.01908C15.9927 7.9219 16.0062 7.81948 15.9974 7.7176C15.9886 7.61571 15.9578 7.51635 15.9067 7.42526C15.8557 7.33418 15.7853 7.25315 15.6997 7.18674C15.6141 7.12033 15.5149 7.06986 15.4078 7.03824C15.3006 7.00661 15.1877 6.99439 15.0754 7.00237C14.9631 7.01034 14.8536 7.03833 14.7533 7.08469C14.6529 7.13105 14.5635 7.19495 14.4904 7.27264L10 12.0315L5.50963 7.27264C5.43645 7.19495 5.34712 7.13105 5.24674 7.08469C5.14635 7.03832 5.03688 7.01034 4.92459 7.00237C4.81229 6.99439 4.69936 7.00661 4.59225 7.03824C4.48514 7.06986 4.38594 7.12032 4.30032 7.18674C4.21471 7.25315 4.14435 7.33418 4.09326 7.42526C4.04218 7.51635 4.01137 7.61571 4.0026 7.7176C3.99383 7.81948 4.00727 7.9219 4.04214 8.01908C4.07702 8.11625 4.13265 8.20621 4.20587 8.28388L9.34895 13.7291C9.43301 13.8179 9.53807 13.8883 9.6563 13.9351C9.77454 13.9819 9.90289 14.0039 10.0318 13.9994Z" fill="#59647A"/>
</svg>
