<svg width="214" height="320" viewBox="0 0 214 320" fill="none" xmlns="http://www.w3.org/2000/svg">
<g clip-path="url(#clip0_1650_11219)">
<path d="M106.5 53.5C106.5 63.9824 103.392 74.2294 97.568 82.9452C91.7443 91.661 83.4668 98.4542 73.7823 102.466C64.0978 106.477 53.4413 107.527 43.1603 105.482C32.8793 103.437 23.4356 98.3888 16.0234 90.9767C8.61119 83.5645 3.56342 74.1208 1.51841 63.8398C-0.526614 53.5588 0.522964 42.9023 4.53441 33.2178C8.54586 23.5333 15.339 15.2558 24.0548 9.43211C32.7706 3.6084 43.0177 0.5 53.5001 0.5C67.5566 0.5 81.0373 6.08391 90.9768 16.0233C100.916 25.9628 106.5 39.4435 106.5 53.5Z" fill="white" stroke="#D9D9D9"/>
</g>
<g clip-path="url(#clip1_1650_11219)">
<path d="M106.5 160.5C106.5 170.982 103.392 181.229 97.568 189.945C91.7443 198.661 83.4668 205.454 73.7823 209.466C64.0978 213.477 53.4413 214.527 43.1603 212.482C32.8793 210.437 23.4356 205.389 16.0234 197.977C8.61119 190.564 3.56342 181.121 1.51841 170.84C-0.526614 160.559 0.522964 149.902 4.53441 140.218C8.54586 130.533 15.339 122.256 24.0548 116.432C32.7706 110.608 43.0177 107.5 53.5001 107.5C67.5566 107.5 81.0373 113.084 90.9768 123.023C100.916 132.963 106.5 146.444 106.5 160.5Z" fill="#D9D9D9" stroke="#D9D9D9"/>
</g>
<g clip-path="url(#clip2_1650_11219)">
<path d="M213.5 160.5C213.5 170.982 210.392 181.229 204.568 189.945C198.744 198.661 190.467 205.454 180.782 209.466C171.098 213.477 160.441 214.527 150.16 212.482C139.879 210.437 130.436 205.389 123.023 197.977C115.611 190.564 110.563 181.121 108.518 170.84C106.473 160.559 107.523 149.902 111.534 140.218C115.546 130.533 122.339 122.256 131.055 116.432C139.771 110.608 150.018 107.5 160.5 107.5C174.557 107.5 188.037 113.084 197.977 123.023C207.916 132.963 213.5 146.444 213.5 160.5Z" fill="white" stroke="#D9D9D9"/>
</g>
<g clip-path="url(#clip3_1650_11219)">
<path d="M213.5 266.5C213.5 276.982 210.392 287.229 204.568 295.945C198.744 304.661 190.467 311.454 180.782 315.466C171.098 319.477 160.441 320.527 150.16 318.482C139.879 316.437 130.436 311.389 123.023 303.977C115.611 296.564 110.563 287.121 108.518 276.84C106.473 266.559 107.523 255.902 111.534 246.218C115.546 236.533 122.339 228.256 131.055 222.432C139.771 216.608 150.018 213.5 160.5 213.5C174.557 213.5 188.037 219.084 197.977 229.023C207.916 238.963 213.5 252.444 213.5 266.5Z" fill="#D9D9D9" stroke="#D9D9D9"/>
</g>
<defs>
<clipPath id="clip0_1650_11219">
<rect width="107" height="107" fill="white"/>
</clipPath>
<clipPath id="clip1_1650_11219">
<rect width="107" height="107" fill="white" transform="translate(0 107)"/>
</clipPath>
<clipPath id="clip2_1650_11219">
<rect width="107" height="107" fill="white" transform="translate(107 107)"/>
</clipPath>
<clipPath id="clip3_1650_11219">
<rect width="107" height="107" fill="white" transform="translate(107 213)"/>
</clipPath>
</defs>
</svg>
