<svg width="32" height="32" viewBox="0 0 32 32" fill="none" xmlns="http://www.w3.org/2000/svg">
<path d="M18.1988 15.9999L27.5439 6.65452C28.152 6.04664 28.152 5.06379 27.5439 4.45591C26.936 3.84803 25.9531 3.84803 25.3453 4.45591L15.9999 13.8013L6.65474 4.45591C6.04658 3.84803 5.064 3.84803 4.45612 4.45591C3.84796 5.06379 3.84796 6.04664 4.45612 6.65452L13.8012 15.9999L4.45612 25.3453C3.84796 25.9532 3.84796 26.936 4.45612 27.5439C4.75907 27.8472 5.15739 27.9995 5.55543 27.9995C5.95347 27.9995 6.35151 27.8472 6.65474 27.5439L15.9999 18.1985L25.3453 27.5439C25.6485 27.8472 26.0465 27.9995 26.4446 27.9995C26.8426 27.9995 27.2406 27.8472 27.5439 27.5439C28.152 26.936 28.152 25.9532 27.5439 25.3453L18.1988 15.9999Z" fill="#1E1E20"/>
</svg>
