<svg width="20" height="20" viewBox="0 0 20 20" fill="none" xmlns="http://www.w3.org/2000/svg">
<path d="M11.2217 9.99999L16.4134 4.80811C16.7513 4.4704 16.7513 3.92437 16.4134 3.58666C16.0757 3.24895 15.5297 3.24895 15.192 3.58666L10.0001 8.77854L4.80835 3.58666C4.47048 3.24895 3.92461 3.24895 3.5869 3.58666C3.24903 3.92437 3.24903 4.4704 3.5869 4.80811L8.77863 9.99999L3.5869 15.1919C3.24903 15.5296 3.24903 16.0756 3.5869 16.4133C3.7552 16.5818 3.97649 16.6664 4.19762 16.6664C4.41876 16.6664 4.63989 16.5818 4.80835 16.4133L10.0001 11.2214L15.192 16.4133C15.3604 16.5818 15.5816 16.6664 15.8027 16.6664C16.0238 16.6664 16.245 16.5818 16.4134 16.4133C16.7513 16.0756 16.7513 15.5296 16.4134 15.1919L11.2217 9.99999Z" fill="#DA1B32"/>
</svg>
