<svg width="24" height="24" viewBox="0 0 24 24" fill="none" xmlns="http://www.w3.org/2000/svg">
<path d="M12 2C6.47327 2 2 6.4725 2 12C2 13.754 2.45746 15.4671 3.32614 16.978L2.03769 20.9792C1.94781 21.2581 2.02167 21.5639 2.22888 21.7711C2.43411 21.9763 2.73914 22.0529 3.02081 21.9623L7.02197 20.6739C8.5329 21.5425 10.246 22 12 22C17.5267 22 22 17.5275 22 12C22 6.47327 17.5275 2 12 2ZM12 20.4375C10.4157 20.4375 8.87134 19.9955 7.53391 19.1591C7.34149 19.0389 7.10254 19.0064 6.88022 19.0779L3.99188 20.0081L4.92206 17.1198C4.99255 16.9007 4.9628 16.6614 4.84073 16.4661C4.00455 15.1287 3.5625 13.5843 3.5625 12C3.5625 7.3476 7.3476 3.5625 12 3.5625C16.6524 3.5625 20.4375 7.3476 20.4375 12C20.4375 16.6524 16.6524 20.4375 12 20.4375ZM12.9766 12C12.9766 12.5392 12.5394 12.9766 12 12.9766C11.4606 12.9766 11.0234 12.5392 11.0234 12C11.0234 11.4606 11.4606 11.0234 12 11.0234C12.5394 11.0234 12.9766 11.4606 12.9766 12ZM16.8828 12C16.8828 12.5392 16.4456 12.9766 15.9062 12.9766C15.3669 12.9766 14.9297 12.5392 14.9297 12C14.9297 11.4606 15.3669 11.0234 15.9062 11.0234C16.4456 11.0234 16.8828 11.4606 16.8828 12ZM9.07031 12C9.07031 12.5392 8.63315 12.9766 8.09375 12.9766C7.5545 12.9766 7.11719 12.5392 7.11719 12C7.11719 11.4606 7.5545 11.0234 8.09375 11.0234C8.63315 11.0234 9.07031 11.4606 9.07031 12Z" fill="black"/>
</svg>
