<svg width="24" height="24" viewBox="0 0 24 24" fill="none" xmlns="http://www.w3.org/2000/svg">
<path d="M12.0392 19.5001H12.0388H12.0392ZM11.9608 19.5001H11.961H11.9608ZM12.0332 19.5001C12.033 19.5001 12.0326 19.5001 12.0322 19.5001H12.0332ZM11.967 19.5001H11.9677C11.9674 19.5001 11.9672 19.5001 11.967 19.5001ZM11.9801 19.5001H11.9813C11.9811 19.5001 11.9805 19.5001 11.9801 19.5001ZM12.0199 19.5001C12.0197 19.5001 12.0191 19.5001 12.0189 19.5001H12.0199ZM11.9859 19.5001H11.988C11.9874 19.5001 11.9865 19.5001 11.9859 19.5001ZM12.0141 19.5001C12.0135 19.5001 12.0126 19.5001 12.012 19.5001H12.0141ZM11.9923 19.5001H11.994C11.9934 19.5001 11.9929 19.5001 11.9923 19.5001ZM12.0077 19.5001C12.0071 19.5001 12.0066 19.5001 12.006 19.5001H12.0077ZM12 3.75024C11.8778 3.75024 11.7553 3.78006 11.6445 3.83987L1.8945 9.08987C1.65169 9.22056 1.5 9.47424 1.5 9.75006C1.5 10.0259 1.65169 10.2796 1.8945 10.4102L4.5 11.8133V17.2501C4.5 17.449 4.57913 17.6397 4.71975 17.7803C4.82044 17.8814 7.24406 20.2501 12 20.2501C16.7559 20.2501 19.1796 17.8814 19.2803 17.7803C19.4209 17.6397 19.5 17.449 19.5 17.2501V11.8133L21 11.0056V14.2501C21 14.6642 21.3358 15.0001 21.75 15.0001C22.1642 15.0001 22.5 14.6642 22.5 14.2501V9.75006C22.5 9.47424 22.3483 9.22056 22.1055 9.08987L12.3555 3.83987C12.2447 3.78006 12.1222 3.75024 12 3.75024ZM12 14.1482L3.83194 9.75006L12 5.35187L20.1679 9.75006L12 14.1482ZM12 15.7501C12.1222 15.7501 12.2447 15.7201 12.3555 15.6602L18 12.6211V16.9058C17.3606 17.4102 15.3454 18.7501 12 18.7501C8.65219 18.7501 6.63656 17.4079 6 16.9062V12.6211L11.6445 15.6602C11.7553 15.7201 11.8778 15.7501 12 15.7501Z" fill="black"/>
</svg>
