<svg width="214" height="320" viewBox="0 0 214 320" fill="none" xmlns="http://www.w3.org/2000/svg">
<g clip-path="url(#clip0_1650_11565)">
<path d="M0.559049 160.5L27.0667 107.5H79.9487L106.456 160.5L79.9487 213.5H27.0667L0.559049 160.5Z" fill="#D9D9D9" stroke="#D9D9D9"/>
</g>
<g clip-path="url(#clip1_1650_11565)">
<path d="M107.559 266.5L134.067 213.5H186.949L213.456 266.5L186.949 319.5H134.067L107.559 266.5Z" fill="#D9D9D9" stroke="#D9D9D9"/>
</g>
<g clip-path="url(#clip2_1650_11565)">
<path d="M107.559 160.5L134.067 107.5H186.949L213.456 160.5L186.949 213.5H134.067L107.559 160.5Z" fill="white" stroke="#D9D9D9"/>
</g>
<g clip-path="url(#clip3_1650_11565)">
<path d="M0.559049 53.5L27.0667 0.5H79.9487L106.456 53.5L79.9487 106.5H27.0667L0.559049 53.5Z" fill="white" stroke="#D9D9D9"/>
</g>
<defs>
<clipPath id="clip0_1650_11565">
<rect width="107" height="107" fill="white" transform="translate(0 107)"/>
</clipPath>
<clipPath id="clip1_1650_11565">
<rect width="107" height="107" fill="white" transform="translate(107 213)"/>
</clipPath>
<clipPath id="clip2_1650_11565">
<rect width="107" height="107" fill="white" transform="translate(107 107)"/>
</clipPath>
<clipPath id="clip3_1650_11565">
<rect width="107" height="107" fill="white"/>
</clipPath>
</defs>
</svg>
