<svg width="28" height="28" viewBox="0 0 28 28" fill="none" xmlns="http://www.w3.org/2000/svg">
<g clip-path="url(#clip0_745_708)">
<path d="M1.7019 6.9175H26.298C27.2365 6.9175 27.9998 6.15429 27.9998 5.21576C27.9998 4.27722 27.2365 3.51361 26.298 3.51361H1.7019C0.763368 3.51361 -0.000244141 4.27722 -0.000244141 5.21576C-0.000244141 6.15429 0.763368 6.9175 1.7019 6.9175Z" fill="#1E1E20"/>
<path d="M26.298 12.2977H1.7019C0.763368 12.2977 -0.000244141 13.0613 -0.000244141 13.9999C-0.000244141 14.9384 0.763368 15.7016 1.7019 15.7016H26.298C27.2365 15.7016 27.9998 14.9384 27.9998 13.9999C27.9998 13.0613 27.2365 12.2977 26.298 12.2977Z" fill="#1E1E20"/>
<path d="M26.298 21.082H1.7019C0.763368 21.082 -0.000244141 21.846 -0.000244141 22.7845C-0.000244141 23.7231 0.763368 24.4863 1.7019 24.4863H26.298C27.2365 24.4863 27.9997 23.7231 27.9997 22.7845C27.9997 21.846 27.2365 21.082 26.298 21.082Z" fill="#1E1E20"/>
</g>
<defs>
<clipPath id="clip0_745_708">
<rect width="28" height="28" fill="white" transform="translate(-0.000244141)"/>
</clipPath>
</defs>
</svg>
