<svg width="24" height="24" viewBox="0 0 24 24" fill="none" xmlns="http://www.w3.org/2000/svg">
<path d="M22.0786 15.4691C22.0786 14.3372 21.2721 13.3902 20.2035 13.1724V10.6409C20.2035 10.4102 20.0905 10.1943 19.9009 10.0629C19.7113 9.93153 19.4694 9.90143 19.2535 9.98248L17.9115 10.4857C17.0302 9.56955 15.959 8.87949 14.7851 8.45587C15.9387 7.60113 16.6878 6.23029 16.6878 4.6876C16.6878 2.10281 14.585 0 12.0002 0C9.41543 0 7.31262 2.10281 7.31262 4.6876C7.31262 6.23029 8.06179 7.60113 9.21532 8.45587C8.0414 8.87954 6.97024 9.5696 6.08897 10.4857L4.74695 9.98248C4.53104 9.90143 4.28907 9.93153 4.09955 10.0629C3.90998 10.1943 3.79692 10.4102 3.79692 10.6409V13.1724C2.72838 13.3902 1.92188 14.3372 1.92188 15.4691C1.92188 16.601 2.72838 17.5479 3.79692 17.7657V20.4848C3.79692 20.7779 3.97875 21.0403 4.25316 21.1432L11.7533 23.9558C11.9115 24.0147 12.0889 24.0147 12.2471 23.9558L19.7472 21.1432C20.0216 21.0403 20.2035 20.7779 20.2035 20.4848V17.7657C21.2721 17.5479 22.0786 16.601 22.0786 15.4691ZM8.7189 4.6876C8.7189 2.87828 10.1909 1.40628 12.0002 1.40628C13.8095 1.40628 15.2815 2.87828 15.2815 4.6876C15.2815 6.49692 13.8095 7.96892 12.0002 7.96892C10.1909 7.96892 8.7189 6.49692 8.7189 4.6876ZM12.0002 9.3752C13.6476 9.3752 15.221 9.97058 16.4487 11.0343L12.0002 12.7025L7.55173 11.0343C8.77946 9.97058 10.3529 9.3752 12.0002 9.3752ZM3.32816 15.4691C3.32816 14.9521 3.74873 14.5316 4.26568 14.5316H4.73444V16.4066H4.26568C3.74873 16.4066 3.32816 15.986 3.32816 15.4691ZM5.2032 17.7893C5.73744 17.6804 6.14072 17.2069 6.14072 16.641V14.2972C6.14072 13.7313 5.73744 13.2578 5.2032 13.1489V11.6555L11.2971 13.9407V22.2828L5.2032 19.9976V17.7893ZM12.7034 22.2828V13.9407L18.7972 11.6555V13.1489C18.263 13.2578 17.8597 13.7313 17.8597 14.2972V16.641C17.8597 17.2069 18.263 17.6804 18.7972 17.7893V19.9975L12.7034 22.2828ZM19.7348 16.4066H19.266V14.5316H19.7348C20.2517 14.5316 20.6723 14.9521 20.6723 15.4691C20.6723 15.986 20.2518 16.4066 19.7348 16.4066Z" fill="#1E1E20"/>
</svg>
