<svg width="24" height="24" viewBox="0 0 24 24" fill="none" xmlns="http://www.w3.org/2000/svg">
<g clip-path="url(#clip0_1047_6792)">
<path d="M22.5707 10.2137L3.20688 2.17885C2.39112 1.84032 1.46951 1.98924 0.801771 2.56731C0.134036 3.14546 -0.145246 4.03628 0.0730043 4.89207L1.79655 11.6511H10.2353C10.6236 11.6511 10.9385 11.9659 10.9385 12.3543C10.9385 12.7426 10.6236 13.0574 10.2353 13.0574H1.79655L0.0730043 19.8164C-0.145246 20.6722 0.133989 21.5631 0.801771 22.1412C1.47087 22.7204 2.39257 22.8675 3.20693 22.5296L22.5707 14.4948C23.4524 14.129 24 13.3088 24 12.3543C24 11.3997 23.4524 10.5795 22.5707 10.2137Z" fill="black"/>
</g>
<defs>
<clipPath id="clip0_1047_6792">
<rect width="24" height="24" fill="white"/>
</clipPath>
</defs>
</svg>
