<svg width="96" height="96" viewBox="0 0 96 96" fill="none" xmlns="http://www.w3.org/2000/svg">
<circle cx="48" cy="48" r="48" fill="#F0F2F5"/>
<path d="M48.0033 24C41.1462 24 35.5407 29.6054 35.5407 36.4626C35.5407 43.3198 41.1462 48.9252 48.0033 48.9252C54.8605 48.9252 60.466 43.3198 60.466 36.4626C60.466 29.6054 54.8605 24 48.0033 24Z" fill="#9AA1B0"/>
<path d="M69.3911 58.8844C69.0646 58.068 68.6293 57.3061 68.1395 56.5986C65.636 52.8979 61.7722 50.4489 57.4184 49.8503C56.8743 49.7959 56.2756 49.9047 55.8402 50.2312C53.5545 51.9183 50.8334 52.7891 48.0034 52.7891C45.1734 52.7891 42.4524 51.9183 40.1667 50.2312C39.7312 49.9047 39.1326 49.7414 38.5884 49.8503C34.2347 50.4489 30.3163 52.8979 27.8674 56.5986C27.3776 57.3061 26.9422 58.1225 26.6157 58.8844C26.4525 59.2109 26.5069 59.5919 26.6701 59.9184C27.1055 60.6803 27.6497 61.4423 28.1395 62.0953C28.9013 63.1294 29.7177 64.0545 30.6429 64.9252C31.4048 65.6871 32.2755 66.3946 33.1463 67.1021C37.4456 70.313 42.6157 72 47.9491 72C53.2824 72 58.4525 70.3129 62.7518 67.1021C63.6225 66.4491 64.4932 65.6871 65.2552 64.9252C66.1259 64.0545 66.9967 63.1293 67.7586 62.0953C68.3028 61.3878 68.7927 60.6803 69.228 59.9184C69.5 59.5919 69.5544 59.2108 69.3911 58.8844Z" fill="#9AA1B0"/>
</svg>
